<svg xmlns="http://www.w3.org/2000/svg" xmlns:xlink="http://www.w3.org/1999/xlink" width="25" height="25"><defs><linearGradient id="a"><stop offset="0" stop-color="#24f3d2"/><stop offset=".394" stop-color="#0674f0"/><stop offset=".507" stop-color="#6961b5"/><stop offset=".813" stop-color="#f34660"/><stop offset="1" stop-color="#ee078d"/></linearGradient><linearGradient id="b" x1="868.253" x2="937.656" y1="521.354" y2="588.736" gradientTransform="translate(-695.12 619.834) scale(.80097)" gradientUnits="userSpaceOnUse" xlink:href="#a"/></defs><g fill="#fff" transform="translate(3.991 -1032.865)"><rect width="25" height="25" x="-3.991" y="1032.865" fill="url(#b)" rx="5.283" ry="5.283"/><path style="text-indent:0;text-align:start;line-height:normal;text-transform:none;block-progression:tb" d="M5 6v14h16V6H5zm1 1h14v2H6V7zm0 3h14v9H6v-9zm5.313 2.031L8.937 14.5l2.376 2.469.718-.688-1.719-1.781 1.72-1.781-.72-.688zm3.374 0-.718.688 1.719 1.781-1.72 1.781.72.688 2.406-2.469-2.407-2.469z" color="#000" font-family="sans-serif" font-weight="400" overflow="visible" transform="translate(-3.991 1032.865)"/></g></svg>