<svg xmlns="http://www.w3.org/2000/svg" width="128" height="128" viewBox="0 0 33.867 33.867"><path fill="#a8d0ff" d="m 16.933349,5.9163387 a 4.8585287,4.8585287 0 0 1 -4.8586,4.8585303 4.8585287,4.8585287 0 0 1 -4.8585,-4.8585303 4.8585287,4.8585287 0 0 1 4.8585,-4.8585197 4.8585287,4.8585287 0 0 1 4.8586,4.8585197" paint-order="markers fill stroke"/><path fill="#a8d0ff" d="m 26.650349,5.9163387 a 4.8585287,4.8585287 0 0 1 -4.8585,4.8585303 4.8585287,4.8585287 0 0 1 -4.8585,-4.8585303 4.8585287,4.8585287 0 0 1 4.8585,-4.8585197 4.8585287,4.8585287 0 0 1 4.8585,4.8585197" paint-order="markers fill stroke"/><path fill="#0063ff" d="M16.933349 4.0188787c-1.4853 0-2.681 1.19571-2.681 2.68097v.77773h5.3619v-.77773c0-1.48526-1.1957-2.68097-2.6809-2.68097zM3.704149 15.478649V30.16302c0 1.465789 1.18 2.645828 2.6458 2.645828h21.1667c1.4658 0 2.6458-1.180039 2.6458-2.645828V15.478649z" paint-order="markers fill stroke"/><path fill="#00a1ff" d="m 3.704149,7.0958087 h 26.4583 c 1.465799,0 2.645899,1.18004 2.645899,2.64583 v 3.2895003 c 0,1.46579 -1.1801,2.64583 -2.645899,2.64583 h -26.4583 c -1.4658,0 -2.64583,-1.18004 -2.64583,-2.64583 V 9.7416387 c 0,-1.46579 1.18003,-2.64583 2.64583,-2.64583 z" paint-order="markers fill stroke"/><path fill="#a8d0ff" d="M 14.252349,8.3524587 V 32.808848 h 5.3619 V 8.3524587 Z" paint-order="markers fill stroke"/><path fill="#fff" d="m 14.252349,7.0956887 v 8.5813903 h 5.3619 V 7.0956887 Z" paint-order="markers fill stroke"/></svg>