<svg xmlns="http://www.w3.org/2000/svg" xmlns:xlink="http://www.w3.org/1999/xlink" width="48" height="48"><defs><linearGradient id="b" x1="1073.403" x2="1097.116" y1="516.451" y2="544.308" gradientTransform="translate(-1304.872 849.343) scale(1.53785)" gradientUnits="userSpaceOnUse" xlink:href="#a"/><linearGradient id="a"><stop offset="0" stop-color="#16ff6a"/><stop offset="1" stop-color="#0090a5"/></linearGradient></defs><g transform="translate(-339 -1642.362)"><rect width="48" height="48" x="339" y="1642.362" fill="url(#b)" rx="10.144" ry="10.144"/><path style="line-height:normal;-inkscape-font-specification:Sans;text-indent:0;text-align:start;text-decoration-line:none;text-transform:none;block-progression:tb;marker:none" fill="#fff" d="M350 1657.362h23v5h-2.5a.41.41 0 0 0-.156 0 .515.515 0 0 0-.344.5v8.5h-20zm11.938 3a3.977 3.977 0 0 0-3.938 2.531l-.438-.75a.518.518 0 0 0-.625-.25c-.286.101-.419.498-.25.75l1 1.72c.13.23.46.32.688.187l1.719-1a.524.524 0 0 0 .187-.688.524.524 0 0 0-.687-.187l-.563.312a2.983 2.983 0 0 1 3.438-1.531 3.057 3.057 0 0 1 1.844 1.406c.097.278.473.415.726.265.254-.15.314-.546.117-.765-.53-.918-1.381-1.6-2.406-1.875a4.144 4.144 0 0 0-.813-.125zm9.062 3h7v1h-7zm-6.156.969a.503.503 0 0 0-.219.094l-1.719 1c-.278.098-.414.473-.264.727.15.253.545.314.764.117l.594-.344a2.956 2.956 0 0 1-3.469 1.594 3.057 3.057 0 0 1-1.844-1.406c-.097-.279-.473-.415-.726-.265-.254.15-.314.545-.117.764.53.92 1.381 1.601 2.406 1.875a3.996 3.996 0 0 0 4.75-2.406l.438.75c.13.23.458.319.687.188a.524.524 0 0 0 .188-.688l-1-1.75a.511.511 0 0 0-.47-.25zm6.156 1.031h7v8h-7v-2zm-22.75 7H370v1h-20.25c-.757 0-1.249-.458-1.5-1zm22.75 2h7v1h-7z" color="#000" font-family="Sans" font-weight="400" overflow="visible"/></g></svg>